<?xml version="1.0" encoding="utf-8"?>
<!-- Generator: Adobe Illustrator 28.2.0, SVG Export Plug-In . SVG Version: 6.00 Build 0)  -->
<svg version="1.1" id="Layer_1" xmlns="http://www.w3.org/2000/svg" xmlns:xlink="http://www.w3.org/1999/xlink" x="0px" y="0px"
	 viewBox="0 0 120 120" style="enable-background:new 0 0 120 120;" xml:space="preserve">
<style type="text/css">
	.st0{fill:#F1F2F2;}
	.st1{fill:#D2DBFA;}
	.st2{fill:#E8EEFE;}
	.st3{fill:#BDC7F6;}
	.st4{fill:#FC985B;}
	.st5{fill:#3C589F;}
	.st6{fill:#2A428C;}
</style>
<circle class="st0" cx="60" cy="60" r="54.7"/>
<g>
	<path class="st1" d="M31.1,40.2c0.2-0.3,0.2-0.6,0.2-0.9c0-2,0-3.9,0-5.9c0-0.6,0.2-0.7,0.7-0.7c4.8-0.1,9.3,1.1,13.7,3.1
		c3.8,1.7,7.3,4.1,10.5,6.7c1.2,1,2.3,2,3.4,3.1c0.2,0.2,0.5,0.4,0.4,0.8c0.4,0.4,0.2,0.9,0.2,1.4c0,10.2,0,20.4,0,30.7
		c0,4.1,0,8.3,0,12.4c0,0.4,0,0.8-0.1,1.2c-0.5,0.5-0.8,0.1-1.1-0.2c-1.1-1.3-2.5-2.4-3.9-3.5c-4.1-3.3-8.6-5.9-13.6-7.6
		c-3-1-6.1-1.5-9.2-1.5c-1.2,0-1.3-0.1-1.3-1.3c0-12.3,0-24.7,0-37C31.1,40.6,31.1,40.4,31.1,40.2z"/>
	<path class="st2" d="M60,92.2c0-15.3,0-30.6,0-45.8c2.1-3.7,4.5-7.2,7.1-10.6c1.8-2.3,3.9-4.4,6-6.4c2.3-2.2,5-4,8-5.2
		c0.6-0.2,0.8-0.2,0.8,0.5c0,2.6,0,5.2,0,7.9c0,0.3-0.1,0.7,0.5,0.7c-0.3,0.6-0.2,1.3-0.2,2c0,11.2,0,22.4,0,33.6
		c0,1.1-0.3,1.7-1.4,2.1c-3.2,1.3-5.9,3.4-8.4,5.8C67.8,81,64.2,86,61.1,91.3c-0.2,0.3-0.4,0.6-0.6,0.8C60.3,92.2,60.2,92.3,60,92.2
		z"/>
	<path class="st1" d="M61.1,91.6c-0.2,0.2-0.5,0.4-0.8,0.4c1-1.6,2-3.2,3.1-4.8c1.8-2.6,3.6-5.1,5.7-7.5c2.5-2.7,5.1-5.2,8.2-7.2
		c1.2-0.8,2.4-1.5,3.8-2c0.7-0.2,0.8-0.6,0.8-1.2c0-11.7,0-23.4,0-35.1c0-0.4,0-0.8,0.5-1c1.9-0.3,3.8-0.5,5.7-0.5
		c0.6,0,0.9,0.1,0.9,0.8c0,1.9,0,3.9,0,5.8c0,0.3,0,0.6,0.2,0.9c0.1,0.2,0.1,0.5,0.1,0.8c0,12.2,0,24.5,0,36.7c0,1.5,0,1.5-1.5,1.5
		c-4.3,0.1-8.5,1.1-12.4,2.8c-4.7,2.1-8.9,5-12.8,8.4C62,90.9,61.5,91.2,61.1,91.6z"/>
	<path class="st3" d="M26.4,86.9c0-13,0-26,0-38.9c0-0.7-0.1-1-0.9-1c-1.1,0.1-2.2,0-3.4,0c1.1-0.3,2.2-0.1,3.3-0.1c0.8,0,1-0.2,1-1
		c-0.1-1.4,0-2.8,0-4.2c0-0.5,0.1-0.7,0.6-0.8c1.4-0.3,2.7-0.7,4.1-0.8c0.3,0.3,0.2,0.6,0.2,0.9c0,12.3,0,24.6,0,36.9c0,1,0,1,1,1
		c4.6,0.1,9,1.2,13.2,3.1c4.1,1.8,7.7,4.4,11.1,7.2c0.9,0.7,1.9,1.4,2.5,2.5c-1.3-0.7-2.6-1.3-3.9-2c-0.2-0.1-0.5-0.2-0.7-0.3
		c-0.3,0.1-0.6-0.1-0.9-0.2c-4.3-1.8-8.7-2.9-13.4-3.3c-4.3-0.4-8.6-0.1-12.8,1C27.2,87,26.8,87.3,26.4,86.9z"/>
	<path class="st3" d="M61.1,91.6c0.9-1.3,2.2-2.1,3.3-3.1c2.8-2.3,5.9-4.3,9.2-5.9c3.5-1.7,7.2-2.8,11-3.3c1.1-0.1,2.3-0.3,3.4-0.2
		c0.8,0.1,0.9-0.2,0.9-0.9c0-5.4,0-10.7,0-16.1c0-7,0-13.9,0-20.9c0-0.3-0.1-0.6,0.2-0.9c1.4,0.1,2.7,0.5,4,0.8
		c0.5,0.1,0.6,0.4,0.6,0.8c0,1.5,0,3,0,4.5c0,0.5,0.2,0.7,0.7,0.7c1,0,1.9,0,2.9,0c0.2,0,0.5-0.1,0.7,0.1c-1.1,0-2.2,0.1-3.4,0
		c-0.8,0-0.9,0.2-0.9,0.9c0,9.5,0,19.1,0,28.6c0,3.5,0,6.9,0,10.4c0,0.1-0.1,0.1-0.2,0c-2.3-0.7-4.6-1-7-1.2
		c-6-0.5-11.8,0.3-17.5,2.3c-2.5,0.9-4.9,1.9-7.2,3.2C61.5,91.4,61.3,91.5,61.1,91.6z"/>
	<path class="st4" d="M37.5,43.1c1.5,0.2,3.1,0.7,4.7,1.2c5.1,1.7,9.6,4.3,13.8,7.6c0.7,0.5,0.8,1.3,0.4,1.9c-0.5,0.6-1.3,0.7-2.1,0
		c-2.7-2.2-5.6-4-8.8-5.5c-2.6-1.2-5.2-2.1-8-2.6c-0.1,0-0.3-0.1-0.4-0.1c-0.7-0.2-1.2-0.8-1.1-1.4C36.1,43.5,36.7,43.1,37.5,43.1z"
		/>
	<path class="st4" d="M37.3,53.7c1.3,0.2,2.6,0.5,3.9,0.9c5.4,1.6,10.3,4.4,14.7,7.9c0.8,0.6,1,1.3,0.5,2c-0.5,0.6-1.2,0.7-1.9,0.1
		c-2.1-1.6-4.3-3.1-6.6-4.4c-3.3-1.8-6.8-3.2-10.5-3.9c-0.8-0.2-1.3-0.7-1.3-1.4C36.1,54.2,36.7,53.7,37.3,53.7z"/>
	<path class="st4" d="M37.5,65.6c2.4,0.4,4.7,1.1,7,2c4.2,1.7,7.9,4,11.4,6.8c0.8,0.6,0.9,1.3,0.5,2c-0.5,0.6-1.3,0.6-2,0
		c-4.1-3.2-8.5-5.8-13.4-7.3c-1.2-0.4-2.4-0.7-3.7-0.9c-0.8-0.1-1.3-0.8-1.2-1.4C36.2,66,36.8,65.5,37.5,65.6z"/>
	<path class="st5" d="M26.4,86.9c1.4-0.2,2.7-0.6,4.1-0.8c2.8-0.4,5.5-0.6,8.3-0.5c4.2,0.2,8.3,1,12.2,2.3c1.2,0.4,2.5,0.8,3.6,1.5
		c0.1,0.5-0.2,0.8-0.6,1c-1.3,0.7-2.7,0.8-4.2,0.8c-7.5,0-15,0-22.6,0c-0.7,0-0.9-0.1-0.9-0.9C26.4,89.3,26.4,88.1,26.4,86.9z"/>
	<path class="st6" d="M60,92.1c0.1,0,0.2-0.1,0.3-0.2c0.3-0.2,0.5-0.5,0.8-0.7c5.2-3,10.8-4.9,16.7-5.7c4.9-0.7,9.8-0.4,14.6,0.8
		c0.4,0.1,0.8,0.1,1,0.6c0,1.3,0,2.7,0,3.6c0-0.9,0.1-2.3,0-3.7c-0.2-0.3-0.1-0.7-0.1-1.1c0-12.7,0-25.4,0-38.1c0-0.3,0-0.5,0-0.8
		c0.1-0.3,0.2-0.6,0.6-0.5c1.3,0,2.6,0,3.9,0c0.8,0.2,1.1,0.7,1.1,1.5c0,15.6,0,31.2,0,46.8c0,1-0.4,1.5-1.4,1.5
		c-9.9,0-19.9,0-29.8,0c-0.9,0-1.8-0.3-2.6-0.7c-1.5-0.7-3-1.4-4.5-2.2c-0.5-0.2-0.8-0.2-1.3,0c-1.5,0.8-3.1,1.5-4.6,2.2
		C53.9,95.8,53,96,52.1,96c-9.9,0-19.7,0-29.6,0c-1.1,0-1.5-0.4-1.5-1.6c0-15.5,0-31.1,0-46.6c0-0.8,0.3-1.3,1.1-1.5
		c1.3-0.1,2.6,0,3.9,0c0.4,0,0.5,0.2,0.6,0.5c0,0.2,0,0.5,0,0.7c0,13,0,25.9,0,38.9c0,0.1,0,0.3,0,0.4c0,1.1,0,2.1,0,3.2
		c0,1.1,0,1.1,1.1,1.1c2.5,0,5,0,7.6,0c5.3,0,10.6,0,15.9,0c1.3,0,2.4-0.4,3.3-1.5c0.2-0.3,0.5-0.3,0.8-0.2c1.4,0.7,2.8,1.2,4,2.3
		C59.5,91.9,59.7,92.1,60,92.1z"/>
</g>
</svg>
